PathFileType	4	(X/Y/Z)	Patient4_TMGait_0pt5_02_left_22.trc.trc
DataRate	CameraRate	NumFrames	NumMarkers	Units	OrigDataRate	OrigDataStartFrame	OrigNumFrames
72.916666666667	72.916666666667	4	33	mm	72.916666666667	1	       141
Frame#	Time	Sacral			L.Shoulder			Chest			R.Shoulder			Neck			R.ASIS			L.ASIS			R.Thigh.Superior			R.Thigh.Lateral			R.Thigh.Inferior			R.Patella			L.Thigh.Superior			L.Thigh.Lateral			L.Thigh.Inferior			L.Patella			L.Shank.Superior			L.Shank.Lateral			L.Shank.Inferior			R.Shank.Superior			R.Shank.Lateral			R.Shank.Inferior			R.Heel			R.Midfoot.Superior			R.Midfoot.Lateral			R.Toe			L.Heel			L.Midfoot.Lateral			L.Midfoot.Superior			L.Toe			L.Elbow			L.Wrist			R.Elbow			R.Wrist			
		X1	Y1	Z1	X2	Y2	Z2	X3	Y3	Z3	X4	Y4	Z4	X5	Y5	Z5	X6	Y6	Z6	X7	Y7	Z7	X8	Y8	Z8	X9	Y9	Z9	X10	Y10	Z10	X11	Y11	Z11	X12	Y12	Z12	X13	Y13	Z13	X14	Y14	Z14	X15	Y15	Z15	X16	Y16	Z16	X17	Y17	Z17	X18	Y18	Z18	X19	Y19	Z19	X20	Y20	Z20	X21	Y21	Z21	X22	Y22	Z22	X23	Y23	Z23	X24	Y24	Z24	X25	Y25	Z25	X26	Y26	Z26	X27	Y27	Z27	X28	Y28	Z28	X29	Y29	Z29	X30	Y30	Z30	X31	Y31	Z31	X32	Y32	Z32	X33	Y33	Z33	

1	27.900000000000	560.684632089452	1013.485766197661	549.283810432119	748.520207027976	1443.019364442378	382.715013444394	853.346480192703	1359.650983222833	536.082023349600	781.424218436496	1429.218580533225	717.609831862037	759.766535071652	1497.001091571779	536.434320987451	788.351941007246	941.807821173399	658.420910922747	767.850474632904	966.262453824186	385.963674474968	826.145307576557	740.920147137577	626.619941815674	747.106114155915	633.763269142105	684.500042907011	822.323944942184	582.506148917656	601.072745285760	823.147919576980	494.134874269269	604.862468152973	853.522865009926	789.463328630216	411.139772671396	813.320697855419	664.543746280794	329.974060297218	919.500772644599	606.002415142913	388.407431619918	939.778808355070	521.547812978855	380.139667772836	890.174916123519	446.733006988400	373.006942334808	766.003607797343	366.313081316414	327.286528545782	792.718458441731	237.971988888325	379.908741697128	796.237950588505	405.693733414037	610.089404076661	727.043131591068	300.323019481014	670.860442455634	766.796250822845	207.765990769505	603.498938598030	630.279009446577	43.285558874363	575.302199440429	804.632777230775	97.596175471066	602.019352378976	718.052900587505	36.186751080804	645.007244023829	925.475545407418	42.550975753896	619.435726168878	629.864203631215	119.223216756336	421.411299514994	692.614037325353	99.694541826692	334.923717461860	792.854605874352	133.066130290529	352.901370704219	895.313255077298	49.384758998934	310.592519735983	660.458687837194	1106.515952258659	250.394466598386	753.569147151665	861.319205103562	225.463725162525	804.010315202757	1081.489429728322	831.903913008538	1018.952216745244	935.972715706082	828.013816772617	
2	27.913714285714	558.404868614722	1013.374441643397	550.807091530874	745.019728637933	1443.433717603839	384.498359038099	851.020579930125	1359.480968526648	536.671461687343	780.602667798794	1428.426725382271	718.979180738669	757.537687767577	1496.865233927748	538.307746921542	786.913366582417	942.063544717092	658.589879032003	764.821377729697	966.295287889646	386.126556851332	822.982060795483	740.733713760955	626.821627257017	743.478315857860	633.727732499525	685.263806731321	818.242120594104	582.082513964710	601.832445104475	818.392532318137	493.648899770995	605.835026491062	849.644996697344	788.834376519828	410.339810866152	808.093219205013	663.703593935697	329.481040201518	913.987357740090	604.929504133806	388.016415880836	935.659811512723	523.131258322589	379.353882117286	890.598134802180	448.454574762835	371.286064201893	773.612453496326	360.381114849479	324.819393434934	809.944949609771	234.868248931257	376.397629321823	790.985477336170	405.316614156540	610.823816784946	720.970210351673	300.288115254344	671.252323181469	760.339578679423	207.543596199947	603.941992749232	623.000558775716	43.412819809692	575.360119410598	797.503938866858	97.585418365775	602.183051606531	710.827648294514	36.176087735516	645.015065138869	918.229263583856	42.410431118910	619.477493870607	658.252709578744	105.037378113914	417.519959884591	721.305522061207	90.890446330833	330.672125051447	817.986266391472	131.195116411170	348.576671423552	925.213275726314	56.343340647764	305.317221626399	653.271765649037	1108.030125030459	252.154757628782	741.588801777136	861.509480232256	224.853024662986	809.985574860951	1081.994374198451	833.250374243470	1030.074322251507	946.524177641551	826.561189854148	
3	27.927428571429	556.158990409864	1013.217324253234	552.259068623677	741.574329791134	1443.842918265556	386.256868770435	848.694257433757	1359.297240069761	537.267438817290	779.711241787195	1427.597438972313	720.333741961950	755.305996442853	1496.708647958556	540.166751655207	785.463069005357	942.294945324135	658.728304859979	761.830901336973	966.295400876410	386.253770421773	819.904298611574	740.540947689042	627.032947342784	739.917805356291	633.676958052848	685.980529018139	814.245027175396	581.653984315982	602.568376155677	813.717646206404	493.155492977499	606.763462246081	845.664525444080	788.069621548014	409.525073397754	802.841682837911	662.831167583550	328.880907134523	908.420327124437	603.780192472542	387.600851268479	931.462941663961	524.627474287835	378.585392252908	890.906049011224	450.166730678131	369.608912639235	781.166775132618	354.647108610318	322.316288301017	826.882482196520	232.074855307361	372.963603860792	785.808674449367	404.926793897352	611.520587158420	714.969139403029	300.248320381136	671.622913840959	753.931453832448	207.312715597682	604.356708268195	615.751844708816	43.536446462186	575.415608922704	790.400741932034	97.564568325084	602.319568246248	703.628868057619	36.165729252381	645.021604572594	911.011154467083	42.272067829080	619.519267266531	686.266532413228	91.526975477267	413.598122181602	749.698620833115	82.594560711861	326.499042756189	842.774603968168	129.663196389871	344.407830213201	954.647340965510	63.482928207634	300.460946105904	646.151646821296	1109.559789005580	253.853244042625	729.683594779279	861.732083400406	224.283475577600	815.862934879717	1082.445169459783	834.473734101220	1040.989769475486	957.032069980152	824.965859668077	
4	27.941142857143	553.983680342044	1012.987032029250	553.563481874454	738.240240455362	1444.242376235276	387.949000146815	846.375439957637	1359.097491296350	537.861354366921	778.694773845014	1426.716431300152	721.643162213237	753.075952210318	1496.522215980603	541.975498989242	783.994832435579	942.483744070419	658.807945797049	758.928489888926	966.248517236089	386.314280321626	816.970076460190	740.336222826581	627.234582903416	736.478393602318	633.600234901496	686.600178670762	810.396096455093	581.217594940461	603.242762249007	809.188410381913	492.650750269228	607.597474256491	841.589903999363	787.122498831259	408.684238122704	797.623278071814	661.923102899247	328.116507269136	902.861799511847	602.547478715297	387.131400367117	927.218327741884	525.985559483467	377.835955977775	891.031658928419	451.845156448142	368.019096636486	788.513714329286	349.329235157915	319.790340706023	843.077909633998	229.827173459677	369.706937879339	780.774082296275	404.518564856409	612.140595348186	709.107055853520	300.201545540488	671.947819819444	747.627382572658	207.068531329255	604.715695502199	608.583535666617	43.652081758671	575.465126202196	783.366227633676	97.526356144836	602.407240609528	696.504055529352	36.156642332956	645.025545759106	903.869379330513	42.140205733181	619.560210811563	713.208682485744	79.329746669067	409.695684524166	777.139142559161	75.245115715639	322.525133099671	866.604031894474	128.694268369309	340.557814358842	982.851235874278	70.775121565391	296.360880356964	639.204503871929	1111.103682538114	255.427034735490	717.987784559035	862.009112526585	223.792147738862	821.493156132100	1082.797809761907	835.438557512388	1051.407678286295	967.419000911217	823.085913394749	
